#Comment line ignore any data following # character 
#Hierarchical Translation and Rotation (.htr) file 
[Header]	
#Header keywords are followed by a single value 
FileType HTR		#Single word string
DataType HTRS		#Translation followed by rotation and scale data
FileVersion 1		#integer
NumSegments 64		#integer
NumFrames 3		#integer
DataFrameRate 30		#integer, data frame rate in this file
EulerRotationOrder ZYX
CalibrationUnits mm
RotationUnits Degrees
GlobalAxisofGravity Y
BoneLengthAxis Y
ScaleFactor 1.00
[SegmentNames&Hierarchy]
#CHILD	PARENT
Pinger_Root GLOBAL
Pelvis Pinger_Root
L_Hip Pelvis
R_Hip Pelvis
Rear_Leg01 Pelvis
Spine1 Pelvis
L_Leg01 L_Hip
L_Leg02 L_Leg01
L_Leg03 L_Leg02
L_Foot L_Leg03
L_Toe1_01 L_Foot
L_Toe2_01 L_Foot
L_Toe3_01 L_Foot
planeAlignerLeft L_Foot
L_Toe1_02 L_Toe1_01
L_Toe1_03 L_Toe1_02
L_Toe2_02 L_Toe2_01
L_Toe2_03 L_Toe2_02
L_Toe3_02 L_Toe3_01
L_Toe3_03 L_Toe3_02
planeLockWeightLeft planeAlignerLeft
R_Leg01 R_Hip
R_Leg02 R_Leg01
R_Leg03 R_Leg02
R_Foot R_Leg03
planeAlignerRight R_Foot
R_Toe1_01 R_Foot
R_Toe2_01 R_Foot
R_Toe3_01 R_Foot
planeLockWeightRight planeAlignerRight
R_Toe1_02 R_Toe1_01
R_Toe1_03 R_Toe1_02
R_Toe2_02 R_Toe2_01
R_Toe2_03 R_Toe2_02
R_Toe3_02 R_Toe3_01
R_Toe3_03 R_Toe3_02
Rear_Leg02 Rear_Leg01
Rear_Leg03 Rear_Leg02
Rear_Leg04 Rear_Leg03
Rear_Foot Rear_Leg04
planeAlignerCenter Rear_Foot
Rear_Toe1_01 Rear_Foot
Rear_Toe2_01 Rear_Foot
Rear_Toe3_01 Rear_Foot
planeLockWeightCenter planeAlignerCenter
Rear_Toe1_02 Rear_Toe1_01
Rear_Toe1_03 Rear_Toe1_02
Rear_Toe2_02 Rear_Toe2_01
Rear_Toe2_03 Rear_Toe2_02
Rear_Toe3_02 Rear_Toe3_01
Rear_Toe3_03 Rear_Toe3_02
Back_Bone Spine1
Head Spine1
Motor_Bone Back_Bone
Ping_Mechanism Back_Bone
BN_LookIK Head
bottomMouth Head
L_Mouth01 Head
L_mouthFront Head
mouthGun Head
R_Mouth01 Head
R_mouthFront Head
TopMouth Head
weapon_bone Head
[BasePosition]
#SegmentName Tx, Ty, Tz, Rx, Ry, Rz, BoneLength
Pinger_Root 0.000000 0.000000 0.000000 -90.000000 0.000000 0.000000 10.000000 
Pelvis 0.000000 0.000000 0.000000 0.000000 0.000000 0.000000 10.000000 
L_Hip 0.000000 0.000000 0.000000 0.000000 0.000000 0.000000 10.000000 
R_Hip 0.000000 0.000000 0.000000 0.000000 0.000000 0.000000 10.000000 
Rear_Leg01 0.000000 0.000000 0.000000 0.000000 0.000000 0.000000 10.000000 
Spine1 0.000000 0.000000 0.000000 0.000000 0.000000 0.000000 10.000000 
L_Leg01 0.000000 0.000000 0.000000 0.000000 0.000000 0.000000 10.000000 
L_Leg02 0.000000 0.000000 0.000000 0.000000 0.000000 0.000000 10.000000 
L_Leg03 0.000000 0.000000 0.000000 0.000000 0.000000 0.000000 10.000000 
L_Foot 0.000000 0.000000 0.000000 0.000000 0.000000 0.000000 10.000000 
L_Toe1_01 0.000000 0.000000 0.000000 0.000000 0.000000 0.000000 10.000000 
L_Toe2_01 0.000000 0.000000 0.000000 0.000000 0.000000 0.000000 10.000000 
L_Toe3_01 0.000000 0.000000 0.000000 0.000000 0.000000 0.000000 10.000000 
planeAlignerLeft 0.000000 0.000000 0.000000 0.000000 0.000000 0.000000 10.000000 
L_Toe1_02 0.000000 0.000000 0.000000 0.000000 0.000000 0.000000 10.000000 
L_Toe1_03 0.000000 0.000000 0.000000 0.000000 0.000000 0.000000 10.000000 
L_Toe2_02 0.000000 0.000000 0.000000 0.000000 0.000000 0.000000 10.000000 
L_Toe2_03 0.000000 0.000000 0.000000 0.000000 0.000000 0.000000 10.000000 
L_Toe3_02 0.000000 0.000000 0.000000 0.000000 0.000000 0.000000 10.000000 
L_Toe3_03 0.000000 0.000000 0.000000 0.000000 0.000000 0.000000 10.000000 
planeLockWeightLeft 0.000000 0.000000 0.000000 0.000000 0.000000 0.000000 10.000000 
R_Leg01 0.000000 0.000000 0.000000 0.000000 0.000000 0.000000 10.000000 
R_Leg02 0.000000 0.000000 0.000000 0.000000 0.000000 0.000000 10.000000 
R_Leg03 0.000000 0.000000 0.000000 0.000000 0.000000 0.000000 10.000000 
R_Foot 0.000000 0.000000 0.000000 0.000000 0.000000 0.000000 10.000000 
planeAlignerRight 0.000000 0.000000 0.000000 0.000000 0.000000 0.000000 10.000000 
R_Toe1_01 0.000000 0.000000 0.000000 0.000000 0.000000 0.000000 10.000000 
R_Toe2_01 0.000000 0.000000 0.000000 0.000000 0.000000 0.000000 10.000000 
R_Toe3_01 0.000000 0.000000 0.000000 0.000000 0.000000 0.000000 10.000000 
planeLockWeightRight 0.000000 0.000000 0.000000 0.000000 0.000000 0.000000 10.000000 
R_Toe1_02 0.000000 0.000000 0.000000 0.000000 0.000000 0.000000 10.000000 
R_Toe1_03 0.000000 0.000000 0.000000 0.000000 0.000000 0.000000 10.000000 
R_Toe2_02 0.000000 0.000000 0.000000 0.000000 0.000000 0.000000 10.000000 
R_Toe2_03 0.000000 0.000000 0.000000 0.000000 0.000000 0.000000 10.000000 
R_Toe3_02 0.000000 0.000000 0.000000 0.000000 0.000000 0.000000 10.000000 
R_Toe3_03 0.000000 0.000000 0.000000 0.000000 0.000000 0.000000 10.000000 
Rear_Leg02 0.000000 0.000000 0.000000 0.000000 0.000000 0.000000 10.000000 
Rear_Leg03 0.000000 0.000000 0.000000 0.000000 0.000000 0.000000 10.000000 
Rear_Leg04 0.000000 0.000000 0.000000 0.000000 0.000000 0.000000 10.000000 
Rear_Foot 0.000000 0.000000 0.000000 0.000000 0.000000 0.000000 10.000000 
planeAlignerCenter 0.000000 0.000000 0.000000 0.000000 0.000000 0.000000 10.000000 
Rear_Toe1_01 0.000000 0.000000 0.000000 0.000000 0.000000 0.000000 10.000000 
Rear_Toe2_01 0.000000 0.000000 0.000000 0.000000 0.000000 0.000000 10.000000 
Rear_Toe3_01 0.000000 0.000000 0.000000 0.000000 0.000000 0.000000 10.000000 
planeLockWeightCenter 0.000000 0.000000 0.000000 0.000000 0.000000 0.000000 10.000000 
Rear_Toe1_02 0.000000 0.000000 0.000000 0.000000 0.000000 0.000000 10.000000 
Rear_Toe1_03 0.000000 0.000000 0.000000 0.000000 0.000000 0.000000 10.000000 
Rear_Toe2_02 0.000000 0.000000 0.000000 0.000000 0.000000 0.000000 10.000000 
Rear_Toe2_03 0.000000 0.000000 0.000000 0.000000 0.000000 0.000000 10.000000 
Rear_Toe3_02 0.000000 0.000000 0.000000 0.000000 0.000000 0.000000 10.000000 
Rear_Toe3_03 0.000000 0.000000 0.000000 0.000000 0.000000 0.000000 10.000000 
Back_Bone 0.000000 0.000000 0.000000 0.000000 0.000000 0.000000 10.000000 
Head 0.000000 0.000000 0.000000 0.000000 0.000000 0.000000 10.000000 
Motor_Bone 0.000000 0.000000 0.000000 0.000000 0.000000 0.000000 10.000000 
Ping_Mechanism 0.000000 0.000000 0.000000 0.000000 0.000000 0.000000 10.000000 
BN_LookIK 0.000000 0.000000 0.000000 0.000000 0.000000 0.000000 10.000000 
bottomMouth 0.000000 0.000000 0.000000 0.000000 0.000000 0.000000 10.000000 
L_Mouth01 0.000000 0.000000 0.000000 0.000000 0.000000 0.000000 10.000000 
L_mouthFront 0.000000 0.000000 0.000000 0.000000 0.000000 0.000000 10.000000 
mouthGun 0.000000 0.000000 0.000000 0.000000 0.000000 0.000000 10.000000 
R_Mouth01 0.000000 0.000000 0.000000 0.000000 0.000000 0.000000 10.000000 
R_mouthFront 0.000000 0.000000 0.000000 0.000000 0.000000 0.000000 10.000000 
TopMouth 0.000000 0.000000 0.000000 0.000000 0.000000 0.000000 10.000000 
weapon_bone 0.000000 0.000000 0.000000 0.000000 0.000000 0.000000 10.000000 
#Beginning of Data. Separated by tabs
#Fr	Tx	Ty	Tz	Rx	Ry	Rz	SF
[Pinger_Root]
14 0.000000 1685.185547 0.000000 -0.000075 -0.000000 -0.000020 1685.185547
15 0.000000 1814.815063 0.000000 -0.000075 -0.000000 -0.000020 1814.815063
16 0.000000 1944.444824 0.000000 -0.000075 -0.000000 -0.000020 1944.444824
[Pelvis]
14 -301.863556 1367.722046 5185.832031 61.445408 -79.796852 -62.415607 5371.651367
15 -311.320404 1337.374390 5126.838867 57.600330 -79.206963 -56.888077 5307.538574
16 -332.125732 1294.996216 5067.493652 54.262245 -78.554886 -51.864819 5240.878906
[L_Hip]
14 5.766392 125.831482 872.656799 -178.250168 -81.786369 87.376007 881.701050
15 5.766392 125.831482 872.656799 -178.250168 -81.786369 87.376007 881.701050
16 5.766392 125.831482 872.656799 -178.250168 -81.786369 87.376007 881.701050
[R_Hip]
14 5.765438 125.836372 -872.654907 -1.748770 81.786041 87.376961 881.699829
15 5.765438 125.836372 -872.654907 -1.748770 81.786041 87.376961 881.699829
16 5.765438 125.836372 -872.654907 -1.748770 81.786041 87.376961 881.699829
[Rear_Leg01]
14 -192.298416 -925.602966 -0.001907 172.577072 7.036129 163.104187 945.367432
15 -192.298416 -925.602966 -0.001907 174.231400 8.775913 166.440018 945.367432
16 -192.298416 -925.602966 -0.001907 176.432846 10.644617 171.733246 945.367432
[Spine1]
14 290.604584 5.007505 0.000477 1.051096 -4.872685 40.197464 290.647736
15 290.604584 5.007505 0.000477 -0.960718 -4.776238 39.674583 290.647736
16 290.604584 5.007505 0.000477 -2.972389 -4.698168 39.148880 290.647736
[L_Leg01]
14 761.932007 -0.002384 -0.069261 73.001183 5.739451 -84.389183 761.932068
15 761.932007 -0.002384 -0.069261 73.699295 7.251994 -85.490791 761.932068
16 761.932007 -0.002384 -0.069261 74.370476 8.777508 -86.577782 761.932068
[L_Leg02]
14 1441.140503 -0.000954 -0.000715 -1.278002 0.833245 -88.259842 1441.140503
15 1441.140503 -0.000954 -0.000715 -1.304467 0.812212 -87.994629 1441.140503
16 1441.140503 -0.000954 -0.000715 -1.334640 0.783130 -87.984344 1441.140503
[L_Leg03]
14 1686.963989 -0.000715 -0.000954 0.108534 -0.012885 81.401428 1686.963989
15 1686.963989 -0.000715 -0.000954 0.101207 -0.012833 83.377022 1686.963989
16 1686.963989 -0.000715 -0.000954 0.093885 -0.012529 85.353218 1686.963989
[L_Foot]
14 3041.570068 -30.715107 11.297464 -12.317885 15.932276 86.433533 3041.746094
15 3041.570068 -30.715107 11.297464 -12.665065 15.274855 86.423775 3041.746094
16 3041.570068 -30.715107 11.297464 -12.972507 14.216080 86.011375 3041.746094
[L_Toe1_01]
14 -188.216690 -224.732346 -21.137953 89.229706 -1.821906 -159.571136 293.899567
15 -188.216690 -224.732346 -21.137953 89.184532 -1.800046 -158.274261 293.899567
16 -188.216690 -224.732346 -21.137953 89.139885 -1.777171 -156.977585 293.899567
[L_Toe2_01]
14 200.746536 -219.926590 148.838394 -77.058792 -13.048759 -47.483715 332.896027
15 200.746536 -219.926590 148.838394 -76.798744 -12.830651 -48.668118 332.896027
16 200.746536 -219.926590 148.838394 -76.543625 -12.607376 -49.850338 332.896027
[L_Toe3_01]
14 188.832520 -219.859131 -191.078659 -106.845589 16.194588 -49.420246 347.140900
15 188.832520 -219.859131 -191.078659 -107.166161 15.910634 -50.602543 347.140900
16 188.832520 -219.859131 -191.078659 -107.480049 15.620416 -51.781342 347.140900
[planeAlignerLeft]
14 -58.542946 -655.567932 0.069580 0.000000 -90.000000 -90.001900 658.176697
15 -61.475525 -669.167542 0.066986 0.000000 -90.000000 -90.001900 671.985413
16 -63.799442 -685.858765 0.063960 0.000000 -90.000000 -90.001900 688.819763
[L_Toe1_02]
14 413.761139 0.000477 0.000000 0.001395 -24.614794 0.001395 413.761139
15 413.761139 0.000477 0.000000 0.001393 -24.835148 0.001393 413.761139
16 413.761139 0.000477 0.000000 0.001391 -25.055490 0.001391 413.761139
[L_Toe1_03]
14 464.317322 0.000358 -0.000089 0.006744 69.955124 0.006744 464.317322
15 464.317322 0.000358 -0.000089 0.006153 68.004257 0.006153 464.317322
16 464.317322 0.000358 -0.000089 0.005657 66.053360 0.005657 464.317322
[L_Toe2_02]
14 342.235809 -0.000477 0.000238 0.001180 -78.272591 0.001180 342.235809
15 342.235809 -0.000477 0.000238 0.001180 -78.111877 0.001180 342.235809
16 342.235809 -0.000477 0.000238 0.001180 -77.951012 0.001180 342.235809
[L_Toe2_03]
14 420.210846 -0.000715 0.000000 -179.997620 74.060326 -179.994095 420.210846
15 420.210846 -0.000715 0.000000 -179.997360 74.995834 -179.993835 420.210846
16 420.210846 -0.000715 0.000000 -179.996902 76.416893 -179.993378 420.210846
[L_Toe3_02]
14 329.270111 0.000954 0.000000 0.001177 -81.784744 0.001177 329.270111
15 329.270111 0.000954 0.000000 0.001177 -81.579414 0.001177 329.270111
16 329.270111 0.000954 0.000000 0.001177 -81.374176 0.001177 329.270111
[L_Toe3_03]
14 439.137451 -0.001907 0.000954 -179.998047 72.265205 -179.994507 439.137451
15 439.137451 -0.001907 0.000954 -179.997787 73.448341 -179.994247 439.137451
16 439.137451 -0.001907 0.000954 -179.997467 74.631592 -179.993942 439.137451
[planeLockWeightLeft]
14 999.998718 0.098190 0.076222 -0.011826 -0.004376 0.005620 999.998779
15 999.998718 0.098184 0.076231 -0.011826 -0.004376 0.005620 999.998779
16 999.998718 0.098179 0.076239 -0.011826 -0.004376 0.005620 999.998779
[R_Leg01]
14 761.455627 -0.001907 -0.000358 80.142838 1.859060 79.651245 761.455688
15 761.455627 -0.001907 -0.000358 79.048584 -9.387248 80.048729 761.455688
16 761.455627 -0.001907 -0.000358 78.263412 -18.159679 79.108620 761.455688
[R_Leg02]
14 1441.140625 0.000000 -0.000238 0.143888 -0.099397 -115.056175 1441.140625
15 1441.140625 0.000000 -0.000238 0.026376 -0.063632 -129.209671 1441.140625
16 1441.140625 0.000000 -0.000238 -0.226900 0.021320 -140.782898 1441.140625
[R_Leg03]
14 1686.963989 0.000954 0.001431 -0.081794 0.012694 88.186493 1686.963989
15 1686.963989 0.000954 0.001431 -0.067398 0.014913 91.572235 1686.963989
16 1686.963989 0.000954 0.001431 -0.049491 0.013114 96.036064 1686.963989
[R_Foot]
14 3041.560059 -30.531288 -11.204481 28.944601 -31.693554 74.359955 3041.734131
15 3041.560059 -30.531288 -11.204481 30.574976 -33.772415 73.239685 3041.734131
16 3041.560059 -30.531288 -11.204481 30.981268 -35.921505 72.929588 3041.734131
[planeAlignerRight]
14 -157.380569 -836.393066 15.206755 0.000000 -89.960434 -90.005180 851.206970
15 -173.675797 -830.444824 14.675978 0.000000 -89.960434 -90.005180 848.538330
16 -189.971008 -824.496582 14.145202 0.000000 -89.960434 -90.005180 846.217285
[R_Toe1_01]
14 -188.383347 -224.864899 21.052242 91.201775 0.703876 -143.391159 294.101532
15 -188.383347 -224.864899 21.052242 91.257408 0.695583 -145.323074 294.101532
16 -188.383347 -224.864899 21.052242 91.365433 0.663629 -145.135559 294.101532
[R_Toe2_01]
14 200.637817 -220.002121 -148.787384 -105.699837 9.317709 -63.175533 332.857574
15 200.637817 -220.002121 -148.787384 -106.443520 8.263463 -68.974892 332.857574
16 200.637817 -220.002121 -148.787384 -107.191780 6.431865 -77.165421 332.857574
[R_Toe3_01]
14 188.606735 -220.092957 191.126343 -69.012291 -13.364680 -65.599403 347.192566
15 188.606735 -220.092957 191.126343 -68.287704 -12.140873 -71.115257 347.192566
16 188.606735 -220.092957 191.126343 -67.549919 -9.879533 -78.876022 347.192566
[planeLockWeightRight]
14 -0.000000 -0.000687 0.076447 -0.011823 -0.004379 -0.000027 0.076450
15 -0.000027 -0.000676 0.076447 -0.011823 -0.004379 -0.000027 0.076450
16 -0.000054 -0.000665 0.076447 -0.011823 -0.004379 -0.000027 0.076449
[R_Toe1_02]
14 413.762085 0.000477 -0.000119 0.001387 -25.581667 0.001387 413.762085
15 413.762085 0.000477 -0.000119 0.001390 -25.226784 0.001390 413.762085
16 413.762085 0.000477 -0.000119 0.001407 -23.067171 0.001407 413.762085
[R_Toe1_03]
14 464.317810 0.000000 0.001088 0.003079 45.190475 0.003079 464.317810
15 464.317810 0.000000 0.001088 0.005509 65.399803 0.005509 464.317810
16 464.317810 0.000000 0.001088 0.011458 78.241882 0.011458 464.317810
[R_Toe2_02]
14 342.234741 -0.000954 0.000238 -0.002339 -76.967186 -0.002339 342.234741
15 342.234741 -0.000954 0.000238 -0.002333 -79.229172 -0.002333 342.234741
16 342.234741 -0.000954 0.000238 -0.002332 -80.040443 -0.002332 342.234741
[R_Toe2_03]
14 420.210846 0.000715 -0.000268 -179.991928 79.554810 -179.995438 420.210846
15 420.210846 0.000715 -0.000268 -179.995148 68.500839 -179.998703 420.210846
16 420.210846 0.000715 -0.000268 -179.995804 62.392166 -179.999390 420.210846
[R_Toe3_02]
14 329.270355 -0.000477 -0.000954 0.001178 -80.360687 0.001178 329.270355
15 329.270355 -0.000477 -0.000954 0.001176 -82.662041 0.001176 329.270355
16 329.270355 -0.000477 -0.000954 0.001175 -83.607292 0.001175 329.270355
[R_Toe3_03]
14 439.137939 0.000238 0.001431 -179.995728 79.060188 -179.992218 439.137939
15 439.137939 0.000238 0.001431 -179.998749 68.154152 -179.995178 439.137939
16 439.137939 0.000238 0.001431 -179.999451 61.837952 -179.995834 439.137939
[Rear_Leg02]
14 1162.777710 -0.029802 0.005960 4.983120 -7.180644 -156.128601 1162.777710
15 1162.777710 -0.029802 0.005960 3.627706 -4.436569 -158.936356 1162.777710
16 1162.777710 -0.029802 0.005960 2.067490 -2.051877 -160.099640 1162.777710
[Rear_Leg03]
14 607.192505 -0.013351 -0.073195 0.010304 -0.005476 72.332596 607.192505
15 607.192505 -0.013351 -0.073195 0.010243 -0.005592 73.614594 607.192505
16 607.192505 -0.013351 -0.073195 0.010180 -0.005706 74.896751 607.192505
[Rear_Leg04]
14 995.874512 -0.020504 -0.011921 -0.041523 -0.015647 76.065681 995.874573
15 995.874512 -0.020504 -0.011921 -0.045096 -0.018295 79.252800 995.874573
16 995.874512 -0.020504 -0.011921 -0.043862 -0.018415 83.116714 995.874573
[Rear_Foot]
14 3096.176270 -0.067472 -0.041425 -66.525307 80.453712 95.813759 3096.176270
15 3096.176270 -0.067472 -0.041425 -56.330021 83.090164 107.639450 3096.176270
16 3096.176270 -0.067472 -0.041425 -35.048149 84.865997 129.884735 3096.176270
[planeAlignerCenter]
14 1.037712 76.821907 -655.752075 0.000009 0.000003 -179.999985 660.237427
15 1.037302 27.811184 -663.622742 0.000009 0.000003 -179.999985 664.206055
16 1.036892 -21.199566 -671.493347 0.000009 0.000003 -179.999985 671.828735
[Rear_Toe1_01]
14 0.653352 83.966492 -371.173737 0.058679 18.491957 90.030235 380.553192
15 0.653352 83.966492 -371.173737 0.060367 17.189816 90.032684 380.553192
16 0.653352 83.966492 -371.173737 0.063770 16.316711 90.033989 380.553192
[Rear_Toe2_01]
14 178.200760 -294.826019 -362.060547 0.831537 43.176952 -69.995964 499.765686
15 178.200760 -294.826019 -362.060547 0.305326 43.860607 -71.187347 499.765686
16 178.200760 -294.826019 -362.060547 -0.246760 44.536003 -72.401138 499.765686
[Rear_Toe3_01]
14 -153.359680 -308.780914 -362.060852 -1.044429 43.196724 -112.454147 499.952881
15 -153.359680 -308.780914 -362.060852 -0.449805 43.871082 -111.125641 499.952881
16 -153.359680 -308.780914 -362.060852 0.173292 44.535091 -109.772369 499.952881
[planeLockWeightCenter]
14 1000.000610 0.000433 0.076189 -0.011814 -0.004373 -0.000015 1000.000610
15 1000.000610 0.000429 0.076192 -0.011814 -0.004373 -0.000015 1000.000610
16 1000.000610 0.000425 0.076195 -0.011814 -0.004373 -0.000015 1000.000610
[Rear_Toe1_02]
14 379.707825 0.194073 0.000477 -0.000767 -33.624729 0.000838 379.707855
15 379.707825 0.194073 0.000477 -0.000767 -33.624729 0.000838 379.707855
16 379.707825 0.194073 0.000477 -0.000767 -33.624729 0.000838 379.707855
[Rear_Toe1_03]
14 500.129700 0.165701 0.000119 0.009589 75.940132 0.009589 500.129761
15 500.129700 0.165701 0.000119 -0.009617 84.203598 -0.013118 500.129761
16 500.129700 0.165701 0.000119 -179.952988 88.544647 -179.956482 500.129761
[Rear_Toe2_02]
14 340.494507 0.000238 -0.000954 0.001174 -86.710320 0.001174 340.494507
15 340.494507 0.000238 -0.000954 0.001175 -83.653687 0.001175 340.494507
16 340.494507 0.000238 -0.000954 0.001179 -79.845009 0.001179 340.494507
[Rear_Toe2_03]
14 433.103577 0.000000 0.000238 -179.993301 76.638176 -179.996826 433.103546
15 433.103577 0.000000 0.000238 179.975616 84.483925 179.975616 433.103546
16 433.103577 0.000000 0.000238 0.046653 87.116768 0.046653 433.103546
[Rear_Toe3_02]
14 340.494141 -0.000358 -0.000477 0.001174 -86.621941 0.001174 340.494171
15 340.494141 -0.000358 -0.000477 0.001175 -83.587364 0.001175 340.494171
16 340.494141 -0.000358 -0.000477 0.001179 -79.818123 0.001179 340.494171
[Rear_Toe3_03]
14 433.103577 0.001431 -0.000238 -179.996735 76.890526 -179.993210 433.103546
15 433.103577 0.001431 -0.000238 -179.989456 84.637650 -179.985962 433.103546
16 433.103577 0.001431 -0.000238 -0.024171 87.062355 -0.020673 433.103546
[Back_Bone]
14 1312.175781 -701.934692 0.000954 -2.028958 -3.649432 -80.802025 1488.125488
15 1312.175781 -701.934692 0.000954 -1.695368 -3.648055 -80.517944 1488.125488
16 1312.175781 -701.934692 0.000954 -1.361781 -3.648327 -80.233856 1488.125488
[Head]
14 1406.159424 809.709290 0.001431 -3.229267 -0.296719 2.466233 1622.625488
15 1406.159424 809.709290 0.001431 -2.992704 -0.619030 3.714216 1622.625488
16 1406.159424 809.709290 0.001431 -2.650774 -0.898209 4.327584 1622.625488
[Motor_Bone]
14 1158.364380 -417.834747 0.000477 -1.029631 1.419345 -104.575356 1231.419434
15 1158.364380 -417.834747 0.000477 -0.583225 2.827931 -103.156052 1231.419434
16 1158.364380 -417.834747 0.000477 0.001255 -0.033980 -106.020981 1231.419434
[Ping_Mechanism]
14 1183.127319 -401.341858 25.044163 0.000103 -0.000053 82.120995 1249.596924
15 1183.536377 -401.443481 30.679167 0.000103 -0.000053 82.120995 1250.142578
16 1183.945435 -401.545105 36.314171 0.000103 -0.000053 82.120995 1250.713379
[BN_LookIK]
14 193.241119 1380.371704 -0.002861 0.000000 89.965736 -31.038179 1393.832153
15 193.241119 1380.371704 -0.002861 0.000000 89.965736 -31.038179 1393.832153
16 193.241119 1380.371704 -0.002861 0.000000 89.965736 -31.038179 1393.832153
[bottomMouth]
14 -435.092926 615.759399 -0.000954 -0.000022 0.000016 73.527184 753.966492
15 -435.092926 615.759399 -0.000954 -0.000022 0.000016 73.527184 753.966492
16 -435.092926 615.759399 -0.000954 -0.000022 0.000016 73.527184 753.966492
[L_Mouth01]
14 554.440979 7.658243 838.222046 150.204178 23.759130 109.605339 1005.027161
15 554.440979 7.658243 838.222046 150.204178 23.759130 109.605339 1005.027161
16 554.440979 7.658243 838.222046 150.204178 23.759130 109.605339 1005.027161
[L_mouthFront]
14 551.629089 934.514771 339.150421 0.000081 2.804060 79.119301 1136.941284
15 551.629089 934.514771 339.150421 0.000081 2.804060 79.119301 1136.941284
16 551.629089 934.514771 339.150421 0.000081 2.804060 79.119301 1136.941284
[mouthGun]
14 55.332661 1627.420898 0.000000 0.000023 0.000009 -11.038128 1628.361328
15 55.332661 1627.420898 0.000000 0.000023 0.000009 -11.038128 1628.361328
16 55.332661 1627.420898 0.000000 0.000023 0.000009 -11.038128 1628.361328
[R_Mouth01]
14 554.442383 7.659197 -838.223938 29.795891 -23.759109 109.605331 1005.029541
15 554.442383 7.659197 -838.223938 29.795891 -23.759109 109.605331 1005.029541
16 554.442383 7.659197 -838.223938 29.795891 -23.759109 109.605331 1005.029541
[R_mouthFront]
14 551.629089 934.514282 -339.151367 0.000029 -2.803930 79.119133 1136.941162
15 551.629089 934.514282 -339.151367 0.000029 -2.803930 79.119133 1136.941162
16 551.629089 934.514282 -339.151367 0.000029 -2.803930 79.119133 1136.941162
[TopMouth]
14 461.269867 -56.106091 -0.008583 -0.000059 -0.000268 92.025169 464.669525
15 461.269867 -56.106091 -0.008583 -0.000059 -0.000268 92.025169 464.669525
16 461.269867 -56.106091 -0.008583 -0.000059 -0.000268 92.025169 464.669525
[weapon_bone]
14 -987.239868 1448.372803 0.001431 0.000000 89.965736 -31.038221 1752.833740
15 -987.239868 1448.372803 0.001431 0.000000 89.965736 -31.038221 1752.833740
16 -987.239868 1448.372803 0.001431 0.000000 89.965736 -31.038221 1752.833740
